<?xml version="1.0" encoding="utf-8"?>
<!-- Generator: Adobe Illustrator 16.0.0, SVG Export Plug-In . SVG Version: 6.00 Build 0)  -->
<!DOCTYPE svg PUBLIC "-//W3C//DTD SVG 1.1//EN" "http://www.w3.org/Graphics/SVG/1.1/DTD/svg11.dtd">
<svg version="1.1" id="Layer_1" xmlns="http://www.w3.org/2000/svg" xmlns:xlink="http://www.w3.org/1999/xlink" x="0px" y="0px"
	 width="29px" height="21px" viewBox="0 0 29 21" enable-background="new 0 0 29 21" xml:space="preserve">
<desc>Created with Sketch.</desc>
<g id="Solution-Design">
	<g id="Jobs_sol" transform="translate(-1315.000000, -27.000000)">
		<g id="header">
			<g id="Cart" transform="translate(1251.000000, 13.000000)">
				<g id="_x36_G" transform="translate(64.000000, 14.000000)">
					<path fill="#FFFFFF" d="M10.59,16.127h14.223c0.467,0,0.871-0.324,0.976-0.785l2.41-10.613
						c0.067-0.298-0.003-0.616-0.192-0.859c-0.189-0.244-0.477-0.379-0.781-0.386L7.349,3.463L6.708,0.974
						C6.593,0.528,6.195,0.216,5.741,0.216H1.024c-0.553,0-1,0.454-1,1.015c0,0.562,0.447,1.015,1,1.015h3.945l0.635,2.462
						c0.003,0.021,0.007,0.034,0.011,0.047l2.736,10.614c0.019,0.072,0.044,0.142,0.077,0.206l0.766,3.216
						c0.215,0.9,1.02,1.537,1.946,1.537h11.165l0,0c0.571,0,1.034-0.464,1.034-1.035c0-0.572-0.463-1.035-1.034-1.035H11.114
						L10.59,16.127z"/>
				</g>
			</g>
		</g>
	</g>
</g>
</svg>
